# xmcd CD database file
# Copyright (C) 1997 Ti Kan
# 
# Track frame offsets:
#     166266
#     181970
#     192015
#     204820
#     221375
# 
# Disc length: 3118 seconds
# 
# Revision: 1
# Processed by: cddbd v1.4b41PL1 Copyright (c) Steve Scherf et al.
# Submitted via: DiscPlay 4.0.4
# 
DISCID=43038605
DTITLE=Clay Walker - Self Portrait
DYEAR=1900
DGENRE=
TTITLE0=Boogie Till The Cows Come Home
TTITLE1=If I Could Make A Living
TTITLE2=Live Until I Die
TTITLE3=Down By The Riverside
TTITLE4=Who Needs You Baby
EXTD=
EXTT0=
EXTT1=
EXTT2=
EXTT3=
EXTT4=
PLAYORDER=
